<?xml version="1.0" encoding="UTF-8"?>
<!DOCTYPE svg PUBLIC "-//W3C//DTD SVG 1.1//EN" "http://www.w3.org/Graphics/SVG/1.1/DTD/svg11.dtd">
<svg xmlns="http://www.w3.org/2000/svg" version="1.1" width="144px" height="144px" style="shape-rendering:geometricPrecision; text-rendering:geometricPrecision; image-rendering:optimizeQuality; fill-rule:evenodd; clip-rule:evenodd" xmlns:xlink="http://www.w3.org/1999/xlink">
<g><path style="opacity:1" fill="#b6b6b6" d="M -0.5,-0.5 C 47.5,-0.5 95.5,-0.5 143.5,-0.5C 143.5,36.8333 143.5,74.1667 143.5,111.5C 142.833,111.5 142.167,111.5 141.5,111.5C 140.833,111.167 140.167,110.833 139.5,110.5C 137.898,108.926 135.898,108.259 133.5,108.5C 131.898,106.926 129.898,106.259 127.5,106.5C 121.882,105.293 116.548,103.293 111.5,100.5C 110.744,97.6061 109.077,95.6061 106.5,94.5C 106.5,94.1667 106.5,93.8333 106.5,93.5C 105.789,91.9699 104.789,90.6366 103.5,89.5C 106.112,84.5195 107.778,79.1862 108.5,73.5C 109.822,73.67 110.989,73.3366 112,72.5C 112.755,67.3161 113.588,62.1494 114.5,57C 114.374,54.1937 113.374,51.8604 111.5,50C 112.601,44.2061 112.768,38.3728 112,32.5C 111.584,30.4497 110.417,29.1164 108.5,28.5C 105.469,23.4689 101.469,19.4689 96.5,16.5C 94.9126,14.0281 92.5792,12.5281 89.5,12C 83.5677,10.6222 77.5677,9.78884 71.5,9.5C 70.9032,8.86137 70.0698,8.52804 69,8.5C 64.8555,9.1645 60.6888,9.6645 56.5,10C 55.944,10.3826 55.6107,10.8826 55.5,11.5C 45.0541,15.2717 37.3874,22.2717 32.5,32.5C 31.8826,32.6107 31.3826,32.944 31,33.5C 30.5774,40.5095 30.7441,47.5095 31.5,54.5C 31.5,54.8333 31.5,55.1667 31.5,55.5C 30.1667,57.8333 30.1667,60.1667 31.5,62.5C 31.7495,65.0021 32.0828,67.5021 32.5,70C 32.6083,71.6811 33.2749,72.8478 34.5,73.5C 38.4968,79.1392 40.4968,85.4725 40.5,92.5C 39.4489,93.2223 38.7822,94.2223 38.5,95.5C 35.9108,96.4194 33.9108,98.086 32.5,100.5C 30.8333,101.167 29.1667,101.833 27.5,102.5C 23.2133,102.476 19.5467,103.81 16.5,106.5C 14.2543,107.455 11.921,108.122 9.5,108.5C 6.12259,108.959 2.78926,109.626 -0.5,110.5C -0.5,73.5 -0.5,36.5 -0.5,-0.5 Z"/></g>
<g><path style="opacity:1" fill="#929192" d="M 71.5,9.5 C 69.901,9.23219 68.5676,9.56552 67.5,10.5C 63.4338,10.307 59.4338,10.6403 55.5,11.5C 55.6107,10.8826 55.944,10.3826 56.5,10C 60.6888,9.6645 64.8555,9.1645 69,8.5C 70.0698,8.52804 70.9032,8.86137 71.5,9.5 Z"/></g>
<g><path style="opacity:1" fill="#868486" d="M 67.5,10.5 C 68.5676,9.56552 69.901,9.23219 71.5,9.5C 77.5677,9.78884 83.5677,10.6222 89.5,12C 92.5792,12.5281 94.9126,14.0281 96.5,16.5C 96.1667,16.5 95.8333,16.5 95.5,16.5C 92.1973,15.1657 88.864,13.8324 85.5,12.5C 83.1667,12.5 80.8333,12.5 78.5,12.5C 75.0915,11.0966 71.4248,10.4299 67.5,10.5 Z"/></g>
<g><path style="opacity:1" fill="#363033" d="M 67.5,10.5 C 71.4248,10.4299 75.0915,11.0966 78.5,12.5C 77.6236,12.3691 76.9569,12.7025 76.5,13.5C 78,13.8333 79.5,14.1667 81,14.5C 82.9855,14.4313 84.4855,13.7647 85.5,12.5C 88.864,13.8324 92.1973,15.1657 95.5,16.5C 95.5,17.1667 95.5,17.8333 95.5,18.5C 91.0254,16.9771 86.3588,15.9771 81.5,15.5C 80.246,17.2592 80.5794,18.7592 82.5,20C 85.5,20.3333 88.5,20.6667 91.5,21C 92.4158,21.2784 93.0825,21.7784 93.5,22.5C 88.4889,22.6659 83.4889,22.4993 78.5,22C 77.8333,20.3333 77.1667,18.6667 76.5,17C 73.0635,18.2892 70.3968,17.2892 68.5,14C 67.2068,13.51 65.8734,13.3433 64.5,13.5C 65.6935,12.7281 66.6935,11.7281 67.5,10.5 Z"/></g>
<g><path style="opacity:1" fill="#221b1d" d="M 78.5,12.5 C 80.8333,12.5 83.1667,12.5 85.5,12.5C 84.4855,13.7647 82.9855,14.4313 81,14.5C 79.5,14.1667 78,13.8333 76.5,13.5C 76.9569,12.7025 77.6236,12.3691 78.5,12.5 Z"/></g>
<g><path style="opacity:1" fill="#444147" d="M 54.5,12.5 C 56.4872,13.3432 58.6539,14.0098 61,14.5C 62.5,15.3333 63.6667,16.5 64.5,18C 64.3333,19.5 63.5,20.3333 62,20.5C 59.8458,19.7259 57.6792,19.0592 55.5,18.5C 53.712,18.7852 52.0453,18.4519 50.5,17.5C 50.9767,16.5224 51.6433,15.6891 52.5,15C 52.2716,14.6012 51.9382,14.4346 51.5,14.5C 51.9731,13.0937 52.9731,12.427 54.5,12.5 Z"/></g>
<g><path style="opacity:1" fill="#636264" d="M 67.5,10.5 C 66.6935,11.7281 65.6935,12.7281 64.5,13.5C 61.2139,12.7929 57.8806,12.4595 54.5,12.5C 52.9731,12.427 51.9731,13.0937 51.5,14.5C 45.9596,17.3657 41.293,21.3657 37.5,26.5C 36.3722,29.212 34.7056,31.5453 32.5,33.5C 32.5,33.1667 32.5,32.8333 32.5,32.5C 37.3874,22.2717 45.0541,15.2717 55.5,11.5C 59.4338,10.6403 63.4338,10.307 67.5,10.5 Z"/></g>
<g><path style="opacity:1" fill="#1a181a" d="M 51.5,14.5 C 51.9382,14.4346 52.2716,14.6012 52.5,15C 51.6433,15.6891 50.9767,16.5224 50.5,17.5C 52.0453,18.4519 53.712,18.7852 55.5,18.5C 56.2341,19.7079 56.5674,21.0413 56.5,22.5C 59.4686,21.6713 62.4686,21.5046 65.5,22C 63.5856,24.8824 63.2523,27.8824 64.5,31C 62.3586,32.3076 60.3586,33.8076 58.5,35.5C 57.1072,34.1369 55.4405,33.3036 53.5,33C 54.7472,31.5064 54.7472,30.0064 53.5,28.5C 51.9991,29.7515 50.3325,30.7515 48.5,31.5C 46.8333,30.5 45.5,29.1667 44.5,27.5C 43.8933,27.6236 43.56,27.9569 43.5,28.5C 42.8826,28.6107 42.3826,28.944 42,29.5C 40.6532,25.625 39.4865,25.625 38.5,29.5C 37.6143,28.675 37.281,27.675 37.5,26.5C 41.293,21.3657 45.9596,17.3657 51.5,14.5 Z"/></g>
<g><path style="opacity:1" fill="#524e54" d="M 95.5,18.5 C 95.4142,19.4959 95.7476,20.3292 96.5,21C 98.4682,22.5442 100.635,23.7109 103,24.5C 103.528,25.816 103.028,26.4827 101.5,26.5C 98.0889,26.3427 95.4222,25.0094 93.5,22.5C 93.0825,21.7784 92.4158,21.2784 91.5,21C 88.5,20.6667 85.5,20.3333 82.5,20C 80.5794,18.7592 80.246,17.2592 81.5,15.5C 86.3588,15.9771 91.0254,16.9771 95.5,18.5 Z"/></g>
<g><path style="opacity:1" fill="#433d41" d="M 95.5,16.5 C 95.8333,16.5 96.1667,16.5 96.5,16.5C 101.469,19.4689 105.469,23.4689 108.5,28.5C 110.455,32.539 111.455,36.8723 111.5,41.5C 110.977,45.4889 110.644,49.4889 110.5,53.5C 110.5,53.8333 110.5,54.1667 110.5,54.5C 109.521,55.7653 108.521,57.0986 107.5,58.5C 106.056,56.3921 105.39,54.0588 105.5,51.5C 106.167,52.5 106.833,53.5 107.5,54.5C 108.222,54.0825 108.722,53.4158 109,52.5C 109.821,45.6536 109.654,38.987 108.5,32.5C 107.761,32.631 107.094,32.4643 106.5,32C 107.517,30.9505 107.684,29.7839 107,28.5C 106.583,29.756 105.75,30.4226 104.5,30.5C 104.19,28.8564 103.19,27.8564 101.5,27.5C 101.5,27.1667 101.5,26.8333 101.5,26.5C 103.028,26.4827 103.528,25.816 103,24.5C 100.635,23.7109 98.4682,22.5442 96.5,21C 95.7476,20.3292 95.4142,19.4959 95.5,18.5C 95.5,17.8333 95.5,17.1667 95.5,16.5 Z"/></g>
<g><path style="opacity:1" fill="#201d1f" d="M 54.5,12.5 C 57.8806,12.4595 61.2139,12.7929 64.5,13.5C 65.8734,13.3433 67.2068,13.51 68.5,14C 70.3968,17.2892 73.0635,18.2892 76.5,17C 77.1667,18.6667 77.8333,20.3333 78.5,22C 83.4889,22.4993 88.4889,22.6659 93.5,22.5C 95.4222,25.0094 98.0889,26.3427 101.5,26.5C 101.5,26.8333 101.5,27.1667 101.5,27.5C 98.4174,26.9338 95.4174,26.9338 92.5,27.5C 91.1667,26.1667 89.8333,24.8333 88.5,23.5C 87.5,24.8333 86.5,26.1667 85.5,27.5C 87.0267,29.1933 88.3601,31.0266 89.5,33C 89,33.5 88.5,34 88,34.5C 86.5589,33.7402 85.0589,33.0736 83.5,32.5C 82.5,34.1667 81.1667,35.5 79.5,36.5C 85.8072,37.3306 92.1406,37.8306 98.5,38C 99.5679,41.1191 101.735,42.9525 105,43.5C 106.077,41.884 106.577,40.0507 106.5,38C 106.591,35.2248 105.924,32.7248 104.5,30.5C 105.75,30.4226 106.583,29.756 107,28.5C 107.684,29.7839 107.517,30.9505 106.5,32C 107.094,32.4643 107.761,32.631 108.5,32.5C 108.683,39.8681 108.35,47.2015 107.5,54.5C 106.833,53.5 106.167,52.5 105.5,51.5C 104.833,51.1667 104.167,50.8333 103.5,50.5C 103.167,49.8333 102.833,49.1667 102.5,48.5C 99.3173,45.9673 97.6506,42.6339 97.5,38.5C 81.4009,38.8271 65.4009,37.8271 49.5,35.5C 48.8163,33.8148 47.483,32.8148 45.5,32.5C 44.8281,31.0508 44.1614,29.7175 43.5,28.5C 43.56,27.9569 43.8933,27.6236 44.5,27.5C 45.5,29.1667 46.8333,30.5 48.5,31.5C 50.3325,30.7515 51.9991,29.7515 53.5,28.5C 54.7472,30.0064 54.7472,31.5064 53.5,33C 55.4405,33.3036 57.1072,34.1369 58.5,35.5C 60.3586,33.8076 62.3586,32.3076 64.5,31C 63.2523,27.8824 63.5856,24.8824 65.5,22C 62.4686,21.5046 59.4686,21.6713 56.5,22.5C 56.5674,21.0413 56.2341,19.7079 55.5,18.5C 57.6792,19.0592 59.8458,19.7259 62,20.5C 63.5,20.3333 64.3333,19.5 64.5,18C 63.6667,16.5 62.5,15.3333 61,14.5C 58.6539,14.0098 56.4872,13.3432 54.5,12.5 Z"/></g>
<g><path style="opacity:1" fill="#171517" d="M 101.5,27.5 C 103.19,27.8564 104.19,28.8564 104.5,30.5C 105.924,32.7248 106.591,35.2248 106.5,38C 106.577,40.0507 106.077,41.884 105,43.5C 101.735,42.9525 99.5679,41.1191 98.5,38C 92.1406,37.8306 85.8072,37.3306 79.5,36.5C 81.1667,35.5 82.5,34.1667 83.5,32.5C 85.0589,33.0736 86.5589,33.7402 88,34.5C 88.5,34 89,33.5 89.5,33C 88.3601,31.0266 87.0267,29.1933 85.5,27.5C 86.5,26.1667 87.5,24.8333 88.5,23.5C 89.8333,24.8333 91.1667,26.1667 92.5,27.5C 95.4174,26.9338 98.4174,26.9338 101.5,27.5 Z"/></g>
<g><path style="opacity:1" fill="#292425" d="M 37.5,26.5 C 37.281,27.675 37.6143,28.675 38.5,29.5C 39.4865,25.625 40.6532,25.625 42,29.5C 42.3826,28.944 42.8826,28.6107 43.5,28.5C 44.1614,29.7175 44.8281,31.0508 45.5,32.5C 47.483,32.8148 48.8163,33.8148 49.5,35.5C 47.5853,35.2155 45.9187,35.5489 44.5,36.5C 43.5,36.8333 42.8333,37.5 42.5,38.5C 40.4778,43.971 37.9778,49.3043 35,54.5C 34.7679,53.2625 34.2679,52.2625 33.5,51.5C 33.7845,49.5853 33.4511,47.9187 32.5,46.5C 32.5,42.1667 32.5,37.8333 32.5,33.5C 34.7056,31.5453 36.3722,29.212 37.5,26.5 Z"/></g>
<g><path style="opacity:1" fill="#050305" d="M 108.5,32.5 C 109.654,38.987 109.821,45.6536 109,52.5C 108.722,53.4158 108.222,54.0825 107.5,54.5C 108.35,47.2015 108.683,39.8681 108.5,32.5 Z"/></g>
<g><path style="opacity:1" fill="#828182" d="M 32.5,32.5 C 32.5,32.8333 32.5,33.1667 32.5,33.5C 32.5,37.8333 32.5,42.1667 32.5,46.5C 32.8064,49.3854 32.4731,52.0521 31.5,54.5C 30.7441,47.5095 30.5774,40.5095 31,33.5C 31.3826,32.944 31.8826,32.6107 32.5,32.5 Z"/></g>
<g><path style="opacity:1" fill="#755952" d="M 44.5,36.5 C 48.1817,36.3347 51.8484,36.5014 55.5,37C 59.0329,37.3705 62.0329,38.5372 64.5,40.5C 57.3192,38.758 49.9859,38.0913 42.5,38.5C 42.8333,37.5 43.5,36.8333 44.5,36.5 Z"/></g>
<g><path style="opacity:1" fill="#8b8282" d="M 108.5,28.5 C 110.417,29.1164 111.584,30.4497 112,32.5C 112.768,38.3728 112.601,44.2061 111.5,50C 113.374,51.8604 114.374,54.1937 114.5,57C 113.588,62.1494 112.755,67.3161 112,72.5C 110.989,73.3366 109.822,73.67 108.5,73.5C 109.167,72.8333 109.833,72.1667 110.5,71.5C 110.833,68.8333 111.167,66.1667 111.5,63.5C 111.5,63.1667 111.5,62.8333 111.5,62.5C 112.407,60.3432 113.073,58.0098 113.5,55.5C 113.179,53.9519 112.179,53.2852 110.5,53.5C 110.644,49.4889 110.977,45.4889 111.5,41.5C 111.455,36.8723 110.455,32.539 108.5,28.5 Z"/></g>
<g><path style="opacity:1" fill="#4a312c" d="M 44.5,36.5 C 45.9187,35.5489 47.5853,35.2155 49.5,35.5C 65.4009,37.8271 81.4009,38.8271 97.5,38.5C 97.6506,42.6339 99.3173,45.9673 102.5,48.5C 99.4042,47.2405 97.0708,45.0738 95.5,42C 86.8384,41.3447 78.1717,40.8447 69.5,40.5C 67.8333,40.5 66.1667,40.5 64.5,40.5C 62.0329,38.5372 59.0329,37.3705 55.5,37C 51.8484,36.5014 48.1817,36.3347 44.5,36.5 Z"/></g>
<g><path style="opacity:1" fill="#67463e" d="M 69.5,40.5 C 78.1717,40.8447 86.8384,41.3447 95.5,42C 97.0708,45.0738 99.4042,47.2405 102.5,48.5C 102.833,49.1667 103.167,49.8333 103.5,50.5C 99.1648,48.8163 97.4981,50.1496 98.5,54.5C 98.0825,55.2216 97.4158,55.7216 96.5,56C 97.3802,57.3561 97.7135,58.8561 97.5,60.5C 94.6811,60.8688 91.8477,61.2022 89,61.5C 87.0145,61.4313 85.5145,60.7647 84.5,59.5C 83.596,58.791 83.2627,57.791 83.5,56.5C 86.8499,56.665 90.1832,56.4983 93.5,56C 92.4019,55.2303 92.4019,54.397 93.5,53.5C 95.0481,53.1788 95.7148,52.1788 95.5,50.5C 90.8333,50.5 86.1667,50.5 81.5,50.5C 81.3284,49.5084 81.6618,48.8417 82.5,48.5C 96.3346,48.4628 96.6679,47.2962 83.5,45C 82.1667,44 80.8333,43 79.5,42C 75.9748,41.8213 72.6414,41.3213 69.5,40.5 Z"/></g>
<g><path style="opacity:1" fill="#7a5348" d="M 64.5,40.5 C 66.1667,40.5 67.8333,40.5 69.5,40.5C 72.6414,41.3213 75.9748,41.8213 79.5,42C 80.8333,43 82.1667,44 83.5,45C 96.6679,47.2962 96.3346,48.4628 82.5,48.5C 81.7101,47.2058 80.7101,46.0391 79.5,45C 74.1843,44.1295 69.1843,42.6295 64.5,40.5 Z"/></g>
<g><path style="opacity:1" fill="#4f3e3b" d="M 42.5,38.5 C 43.1691,44.1601 41.3358,48.8268 37,52.5C 36.5172,53.448 36.3505,54.448 36.5,55.5C 35.8501,55.8039 35.1835,56.1373 34.5,56.5C 33.5481,54.9547 33.2148,53.288 33.5,51.5C 34.2679,52.2625 34.7679,53.2625 35,54.5C 37.9778,49.3043 40.4778,43.971 42.5,38.5 Z"/></g>
<g><path style="opacity:1" fill="#503834" d="M 79.5,50.5 C 80.1667,50.5 80.8333,50.5 81.5,50.5C 86.1667,50.5 90.8333,50.5 95.5,50.5C 95.7148,52.1788 95.0481,53.1788 93.5,53.5C 88.3814,54.1031 83.7147,53.4364 79.5,51.5C 79.5,51.1667 79.5,50.8333 79.5,50.5 Z"/></g>
<g><path style="opacity:1" fill="#7f574d" d="M 79.5,50.5 C 79.5,50.8333 79.5,51.1667 79.5,51.5C 77.6075,52.7017 75.7742,54.035 74,55.5C 73.6667,60.8333 73.3333,66.1667 73,71.5C 72.6174,72.056 72.1174,72.3893 71.5,72.5C 71.6659,67.4889 71.4993,62.4889 71,57.5C 67.5386,55.8162 65.372,56.8162 64.5,60.5C 61.7664,63.1426 58.4331,64.1426 54.5,63.5C 54.5,62.1667 54.5,60.8333 54.5,59.5C 52.396,59.7989 50.396,59.4656 48.5,58.5C 50.7427,57.5258 53.076,57.1924 55.5,57.5C 56.3029,56.5768 56.4696,55.5768 56,54.5C 54.1839,53.6705 52.3506,52.8372 50.5,52C 56.8515,51.3455 63.1849,51.5122 69.5,52.5C 72.8419,51.8262 76.1752,51.1595 79.5,50.5 Z"/></g>
<g><path style="opacity:1" fill="#73524d" d="M 103.5,50.5 C 104.167,50.8333 104.833,51.1667 105.5,51.5C 105.39,54.0588 106.056,56.3921 107.5,58.5C 108.521,57.0986 109.521,55.7653 110.5,54.5C 109.995,57.8411 109.828,61.1745 110,64.5C 110.383,63.944 110.883,63.6107 111.5,63.5C 111.167,66.1667 110.833,68.8333 110.5,71.5C 108.993,68.3716 107.66,65.0383 106.5,61.5C 106.229,59.6883 105.562,58.0217 104.5,56.5C 103.897,65.4451 102.564,74.2784 100.5,83C 102.163,86.1492 101.829,88.9826 99.5,91.5C 98.8814,88.0225 98.8814,84.3559 99.5,80.5C 97.1417,80.7475 95.1417,80.0808 93.5,78.5C 93.0825,77.7784 92.4158,77.2784 91.5,77C 94.3333,74.8333 96.8333,72.3333 99,69.5C 99.6172,68.5509 99.4506,67.7175 98.5,67C 101.265,64.0052 102.098,60.5052 101,56.5C 100.292,55.6195 99.4584,54.9528 98.5,54.5C 97.4981,50.1496 99.1648,48.8163 103.5,50.5 Z"/></g>
<g><path style="opacity:1" fill="#6a2c27" d="M 110.5,53.5 C 112.179,53.2852 113.179,53.9519 113.5,55.5C 112.883,55.6107 112.383,55.944 112,56.5C 111.505,58.4727 111.338,60.4727 111.5,62.5C 111.5,62.8333 111.5,63.1667 111.5,63.5C 110.883,63.6107 110.383,63.944 110,64.5C 109.828,61.1745 109.995,57.8411 110.5,54.5C 110.5,54.1667 110.5,53.8333 110.5,53.5 Z"/></g>
<g><path style="opacity:1" fill="#814f4a" d="M 113.5,55.5 C 113.073,58.0098 112.407,60.3432 111.5,62.5C 111.338,60.4727 111.505,58.4727 112,56.5C 112.383,55.944 112.883,55.6107 113.5,55.5 Z"/></g>
<g><path style="opacity:1" fill="#69514d" d="M 32.5,46.5 C 33.4511,47.9187 33.7845,49.5853 33.5,51.5C 33.2148,53.288 33.5481,54.9547 34.5,56.5C 35.1835,56.1373 35.8501,55.8039 36.5,55.5C 36.5,58.1667 36.5,60.8333 36.5,63.5C 36.5,63.8333 36.5,64.1667 36.5,64.5C 35.8826,64.6107 35.3826,64.944 35,65.5C 35.1517,61.5944 33.985,58.2611 31.5,55.5C 31.5,55.1667 31.5,54.8333 31.5,54.5C 32.4731,52.0521 32.8064,49.3854 32.5,46.5 Z"/></g>
<g><path style="opacity:1" fill="#956961" d="M 31.5,55.5 C 33.985,58.2611 35.1517,61.5944 35,65.5C 35.3826,64.944 35.8826,64.6107 36.5,64.5C 36.5,65.5 36.5,66.5 36.5,67.5C 35.8333,67.5 35.1667,67.5 34.5,67.5C 33.3127,65.9275 32.3127,64.2608 31.5,62.5C 30.1667,60.1667 30.1667,57.8333 31.5,55.5 Z"/></g>
<g><path style="opacity:1" fill="#a4847a" d="M 51.5,63.5 C 50.7515,64.531 50.0848,65.6976 49.5,67C 51.6498,72.1746 49.9832,74.508 44.5,74C 42.1518,71.707 39.9852,71.5404 38,73.5C 36.872,71.6547 36.372,69.6547 36.5,67.5C 36.5,66.5 36.5,65.5 36.5,64.5C 36.5,64.1667 36.5,63.8333 36.5,63.5C 37.1661,60.3107 37.8328,56.9773 38.5,53.5C 40.3487,51.3578 42.3487,50.1911 44.5,50C 43.966,46.6024 43.966,43.1024 44.5,39.5C 49.8993,39.309 55.2326,39.809 60.5,41C 61.1667,43.6667 61.8333,46.3333 62.5,49C 57.9174,50.1447 53.2508,50.8113 48.5,51C 47.0267,51.7096 46.3601,52.8762 46.5,54.5C 55.8333,55.1667 55.8333,55.8333 46.5,56.5C 46.3433,57.8734 46.51,59.2068 47,60.5C 49.0263,60.9147 50.5263,61.9147 51.5,63.5 Z"/></g>
<g><path style="opacity:1" fill="#764f46" d="M 79.5,51.5 C 83.7147,53.4364 88.3814,54.1031 93.5,53.5C 92.4019,54.397 92.4019,55.2303 93.5,56C 90.1832,56.4983 86.8499,56.665 83.5,56.5C 83.2627,57.791 83.596,58.791 84.5,59.5C 85.5145,60.7647 87.0145,61.4313 89,61.5C 91.8477,61.2022 94.6811,60.8688 97.5,60.5C 97.7135,58.8561 97.3802,57.3561 96.5,56C 97.4158,55.7216 98.0825,55.2216 98.5,54.5C 99.4584,54.9528 100.292,55.6195 101,56.5C 102.098,60.5052 101.265,64.0052 98.5,67C 99.4506,67.7175 99.6172,68.5509 99,69.5C 96.8333,72.3333 94.3333,74.8333 91.5,77C 92.4158,77.2784 93.0825,77.7784 93.5,78.5C 90.3394,80.3984 88.6728,83.2317 88.5,87C 84.6213,89.7156 80.6213,92.2156 76.5,94.5C 73.2807,95.6382 69.9474,96.4715 66.5,97C 64.9632,98.1096 64.2965,99.6096 64.5,101.5C 61.786,101.25 59.1194,101.083 56.5,101C 57.7305,102.405 59.0639,103.571 60.5,104.5C 59.4168,104.539 58.4168,104.873 57.5,105.5C 55.4714,104.156 53.4714,102.823 51.5,101.5C 50.5849,99.2459 49.2516,97.2459 47.5,95.5C 46.537,94.6365 46.537,93.9698 47.5,93.5C 49.5852,94.5414 51.2519,96.0414 52.5,98C 55.4424,99.1244 58.4424,99.4577 61.5,99C 61.0426,98.586 60.7093,98.086 60.5,97.5C 65.0963,96.4141 69.4296,94.7474 73.5,92.5C 74.3094,90.9291 74.6427,89.2624 74.5,87.5C 72.1432,87.6633 69.8098,87.4966 67.5,87C 70.0656,84.1654 69.2322,82.6654 65,82.5C 61.2448,83.983 60.7448,83.3164 63.5,80.5C 64.5676,79.5655 65.901,79.2322 67.5,79.5C 67.5,78.1667 67.5,76.8333 67.5,75.5C 66.0222,75.762 64.6888,75.4287 63.5,74.5C 66.1867,73.7396 68.8534,73.0729 71.5,72.5C 72.1174,72.3893 72.6174,72.056 73,71.5C 73.3333,66.1667 73.6667,60.8333 74,55.5C 75.7742,54.035 77.6075,52.7017 79.5,51.5 Z"/></g>
<g><path style="opacity:1" fill="#362423" d="M 84.5,59.5 C 85.5145,58.2353 87.0145,57.5687 89,57.5C 90.5,57.8333 92,58.1667 93.5,58.5C 90.5719,59.4841 87.5719,59.8174 84.5,59.5 Z"/></g>
<g><path style="opacity:1" fill="#947166" d="M 42.5,38.5 C 49.9859,38.0913 57.3192,38.758 64.5,40.5C 69.1843,42.6295 74.1843,44.1295 79.5,45C 80.7101,46.0391 81.7101,47.2058 82.5,48.5C 81.6618,48.8417 81.3284,49.5084 81.5,50.5C 80.8333,50.5 80.1667,50.5 79.5,50.5C 76.1752,51.1595 72.8419,51.8262 69.5,52.5C 63.1849,51.5122 56.8515,51.3455 50.5,52C 52.3506,52.8372 54.1839,53.6705 56,54.5C 56.4696,55.5768 56.3029,56.5768 55.5,57.5C 53.076,57.1924 50.7427,57.5258 48.5,58.5C 50.396,59.4656 52.396,59.7989 54.5,59.5C 54.5,60.8333 54.5,62.1667 54.5,63.5C 58.4331,64.1426 61.7664,63.1426 64.5,60.5C 65.372,56.8162 67.5386,55.8162 71,57.5C 71.4993,62.4889 71.6659,67.4889 71.5,72.5C 68.8534,73.0729 66.1867,73.7396 63.5,74.5C 64.6888,75.4287 66.0222,75.762 67.5,75.5C 67.5,76.8333 67.5,78.1667 67.5,79.5C 65.901,79.2322 64.5676,79.5655 63.5,80.5C 61.5,80.5 59.5,80.5 57.5,80.5C 57.3784,77.7426 58.5451,75.7426 61,74.5C 61.4935,72.8659 61.6602,71.1992 61.5,69.5C 53.6364,68.6958 50.9697,72.0291 53.5,79.5C 54.624,80.914 55.624,82.414 56.5,84C 58.8333,84.3333 61.1667,84.6667 63.5,85C 64.1667,86 64.8333,87 65.5,88C 67.5767,88.1922 69.5767,88.6922 71.5,89.5C 68.8977,92.385 65.731,94.385 62,95.5C 58.1262,94.5983 54.4596,93.2649 51,91.5C 48.2501,92.2911 45.4168,92.2911 42.5,91.5C 42.8039,90.8501 43.1373,90.1835 43.5,89.5C 47.725,89.2189 51.3917,87.7189 54.5,85C 52.9938,82.6667 51.3271,80.5 49.5,78.5C 50.825,73.8926 51.825,69.226 52.5,64.5C 52.3764,63.8933 52.0431,63.56 51.5,63.5C 50.5263,61.9147 49.0263,60.9147 47,60.5C 46.51,59.2068 46.3433,57.8734 46.5,56.5C 55.8333,55.8333 55.8333,55.1667 46.5,54.5C 46.3601,52.8762 47.0267,51.7096 48.5,51C 53.2508,50.8113 57.9174,50.1447 62.5,49C 61.8333,46.3333 61.1667,43.6667 60.5,41C 55.2326,39.809 49.8993,39.309 44.5,39.5C 43.966,43.1024 43.966,46.6024 44.5,50C 42.3487,50.1911 40.3487,51.3578 38.5,53.5C 37.8328,56.9773 37.1661,60.3107 36.5,63.5C 36.5,60.8333 36.5,58.1667 36.5,55.5C 36.3505,54.448 36.5172,53.448 37,52.5C 41.3358,48.8268 43.1691,44.1601 42.5,38.5 Z"/></g>
<g><path style="opacity:1" fill="#513630" d="M 55.5,57.5 C 57.5,57.5 59.5,57.5 61.5,57.5C 61.2407,61.0681 59.2407,62.4015 55.5,61.5C 55.5,60.1667 55.5,58.8333 55.5,57.5 Z"/></g>
<g><path style="opacity:1" fill="#a48278" d="M 64.5,60.5 C 66.1417,58.9192 68.1417,58.2525 70.5,58.5C 70.6657,62.8461 70.499,67.1794 70,71.5C 67.9592,72.4231 65.7925,72.7564 63.5,72.5C 63.5514,70.4305 62.8847,68.5971 61.5,67C 62.3914,64.7211 63.3914,62.5544 64.5,60.5 Z"/></g>
<g><path style="opacity:1" fill="#aa938e" d="M 31.5,62.5 C 32.3127,64.2608 33.3127,65.9275 34.5,67.5C 34.5,69.5 34.5,71.5 34.5,73.5C 33.2749,72.8478 32.6083,71.6811 32.5,70C 32.0828,67.5021 31.7495,65.0021 31.5,62.5 Z"/></g>
<g><path style="opacity:1" fill="#816968" d="M 106.5,61.5 C 107.66,65.0383 108.993,68.3716 110.5,71.5C 109.833,72.1667 109.167,72.8333 108.5,73.5C 106.326,77.1952 104.659,81.1952 103.5,85.5C 103.29,81.8395 103.956,78.3395 105.5,75C 104.475,70.195 104.308,65.3617 105,60.5C 105.383,61.056 105.883,61.3893 106.5,61.5 Z"/></g>
<g><path style="opacity:1" fill="#8b635a" d="M 78.5,58.5 C 80.6491,59.7476 82.6491,61.2476 84.5,63C 87.8168,63.4983 91.1501,63.665 94.5,63.5C 93.85,67.1397 92.35,70.473 90,73.5C 88.3948,76.2735 86.2281,76.9402 83.5,75.5C 81.5,70.5 79.5,65.5 77.5,60.5C 77.8627,59.8165 78.1961,59.1499 78.5,58.5 Z"/></g>
<g><path style="opacity:1" fill="#9c7b72" d="M 51.5,63.5 C 52.0431,63.56 52.3764,63.8933 52.5,64.5C 51.825,69.226 50.825,73.8926 49.5,78.5C 51.3271,80.5 52.9938,82.6667 54.5,85C 51.3917,87.7189 47.725,89.2189 43.5,89.5C 43.1373,90.1835 42.8039,90.8501 42.5,91.5C 41.8333,91.5 41.5,91.8333 41.5,92.5C 41.1667,92.5 40.8333,92.5 40.5,92.5C 40.4968,85.4725 38.4968,79.1392 34.5,73.5C 34.5,71.5 34.5,69.5 34.5,67.5C 35.1667,67.5 35.8333,67.5 36.5,67.5C 36.372,69.6547 36.872,71.6547 38,73.5C 39.9852,71.5404 42.1518,71.707 44.5,74C 49.9832,74.508 51.6498,72.1746 49.5,67C 50.0848,65.6976 50.7515,64.531 51.5,63.5 Z"/></g>
<g><path style="opacity:1" fill="#5e3c34" d="M 75.5,83.5 C 77.604,83.7989 79.604,83.4656 81.5,82.5C 78.3462,80.9741 75.0128,80.3075 71.5,80.5C 73.6393,78.8609 73.9726,76.8609 72.5,74.5C 75.0865,73.52 77.7531,73.1866 80.5,73.5C 79.8872,76.9694 81.2206,78.9694 84.5,79.5C 84.3495,85.3152 81.3495,87.9819 75.5,87.5C 75.5,86.1667 75.5,84.8333 75.5,83.5 Z"/></g>
<g><path style="opacity:1" fill="#482526" d="M 71.5,80.5 C 75.0128,80.3075 78.3462,80.9741 81.5,82.5C 79.604,83.4656 77.604,83.7989 75.5,83.5C 73.7697,82.9744 72.4363,81.9744 71.5,80.5 Z"/></g>
<g><path style="opacity:1" fill="#9f9897" d="M 108.5,73.5 C 107.778,79.1862 106.112,84.5195 103.5,89.5C 102.314,88.2946 102.314,86.9613 103.5,85.5C 104.659,81.1952 106.326,77.1952 108.5,73.5 Z"/></g>
<g><path style="opacity:1" fill="#765c5a" d="M 106.5,61.5 C 105.883,61.3893 105.383,61.056 105,60.5C 104.308,65.3617 104.475,70.195 105.5,75C 103.956,78.3395 103.29,81.8395 103.5,85.5C 102.314,86.9613 102.314,88.2946 103.5,89.5C 104.789,90.6366 105.789,91.9699 106.5,93.5C 105.604,92.4937 104.938,92.4937 104.5,93.5C 103.279,92.9717 102.113,92.305 101,91.5C 100.517,92.448 100.351,93.448 100.5,94.5C 99.6618,94.1583 99.3284,93.4916 99.5,92.5C 99.5,92.1667 99.5,91.8333 99.5,91.5C 101.829,88.9826 102.163,86.1492 100.5,83C 102.564,74.2784 103.897,65.4451 104.5,56.5C 105.562,58.0217 106.229,59.6883 106.5,61.5 Z"/></g>
<g><path style="opacity:1" fill="#694841" d="M 93.5,78.5 C 95.1417,80.0808 97.1417,80.7475 99.5,80.5C 98.8814,84.3559 98.8814,88.0225 99.5,91.5C 99.5,91.8333 99.5,92.1667 99.5,92.5C 96.5769,94.1011 93.9102,93.7678 91.5,91.5C 88.5892,92.7441 85.7559,94.0774 83,95.5C 80.9011,94.7135 78.7345,94.3801 76.5,94.5C 80.6213,92.2156 84.6213,89.7156 88.5,87C 88.6728,83.2317 90.3394,80.3984 93.5,78.5 Z"/></g>
<g><path style="opacity:1" fill="#896258" d="M 63.5,80.5 C 60.7448,83.3164 61.2448,83.983 65,82.5C 69.2322,82.6654 70.0656,84.1654 67.5,87C 69.8098,87.4966 72.1432,87.6633 74.5,87.5C 74.6427,89.2624 74.3094,90.9291 73.5,92.5C 69.4296,94.7474 65.0963,96.4141 60.5,97.5C 60.7093,98.086 61.0426,98.586 61.5,99C 58.4424,99.4577 55.4424,99.1244 52.5,98C 51.2519,96.0414 49.5852,94.5414 47.5,93.5C 46.537,93.9698 46.537,94.6365 47.5,95.5C 46.5,95.5 45.5,95.5 44.5,95.5C 44.7373,94.209 44.404,93.209 43.5,92.5C 42.8333,92.5 42.1667,92.5 41.5,92.5C 41.5,91.8333 41.8333,91.5 42.5,91.5C 45.4168,92.2911 48.2501,92.2911 51,91.5C 54.4596,93.2649 58.1262,94.5983 62,95.5C 65.731,94.385 68.8977,92.385 71.5,89.5C 69.5767,88.6922 67.5767,88.1922 65.5,88C 64.8333,87 64.1667,86 63.5,85C 61.1667,84.6667 58.8333,84.3333 56.5,84C 55.624,82.414 54.624,80.914 53.5,79.5C 50.9697,72.0291 53.6364,68.6958 61.5,69.5C 61.6602,71.1992 61.4935,72.8659 61,74.5C 58.5451,75.7426 57.3784,77.7426 57.5,80.5C 59.5,80.5 61.5,80.5 63.5,80.5 Z"/></g>
<g><path style="opacity:1" fill="#5e4039" d="M 99.5,92.5 C 99.3284,93.4916 99.6618,94.1583 100.5,94.5C 100.5,95.5 100.5,96.5 100.5,97.5C 98.8333,98.8333 97.1667,100.167 95.5,101.5C 94.352,100.836 93.0187,100.669 91.5,101C 92.6667,99.8333 93.8333,98.6667 95,97.5C 95.6877,96.6683 95.521,96.0016 94.5,95.5C 89.5182,97.3291 85.1849,100.162 81.5,104C 76.5,104.333 71.5,104.667 66.5,105C 67.4158,105.278 68.0825,105.778 68.5,106.5C 65.6703,106.306 63.0037,105.639 60.5,104.5C 59.0639,103.571 57.7305,102.405 56.5,101C 59.1194,101.083 61.786,101.25 64.5,101.5C 64.2965,99.6096 64.9632,98.1096 66.5,97C 69.9474,96.4715 73.2807,95.6382 76.5,94.5C 78.7345,94.3801 80.9011,94.7135 83,95.5C 85.7559,94.0774 88.5892,92.7441 91.5,91.5C 93.9102,93.7678 96.5769,94.1011 99.5,92.5 Z"/></g>
<g><path style="opacity:1" fill="#474143" d="M 43.5,92.5 C 44.404,93.209 44.7373,94.209 44.5,95.5C 44.9628,98.221 45.6295,100.888 46.5,103.5C 46.1667,103.5 45.8333,103.5 45.5,103.5C 43.7739,101.18 43.1072,98.5133 43.5,95.5C 43.5,94.5 43.5,93.5 43.5,92.5 Z"/></g>
<g><path style="opacity:1" fill="#120b0e" d="M 106.5,93.5 C 106.5,93.8333 106.5,94.1667 106.5,94.5C 106.833,95.1667 107.167,95.8333 107.5,96.5C 107.326,98.861 106.993,101.194 106.5,103.5C 105.833,100.5 105.167,97.5 104.5,94.5C 104.5,94.1667 104.5,93.8333 104.5,93.5C 104.938,92.4937 105.604,92.4937 106.5,93.5 Z"/></g>
<g><path style="opacity:1" fill="#83767c" d="M 106.5,94.5 C 109.077,95.6061 110.744,97.6061 111.5,100.5C 110.391,100.443 109.391,100.11 108.5,99.5C 108.737,98.209 108.404,97.209 107.5,96.5C 107.167,95.8333 106.833,95.1667 106.5,94.5 Z"/></g>
<g><path style="opacity:1" fill="#7c6f75" d="M 38.5,95.5 C 37.0892,97.914 35.0892,99.5806 32.5,100.5C 33.9108,98.086 35.9108,96.4194 38.5,95.5 Z"/></g>
<g><path style="opacity:1" fill="#6d605e" d="M 100.5,97.5 C 99.0618,101.274 96.3951,103.607 92.5,104.5C 93.6935,103.728 94.6935,102.728 95.5,101.5C 97.1667,100.167 98.8333,98.8333 100.5,97.5 Z"/></g>
<g><path style="opacity:1" fill="#7a7377" d="M 104.5,93.5 C 104.5,93.8333 104.5,94.1667 104.5,94.5C 105.111,99.5108 103.777,103.844 100.5,107.5C 99.8333,107.833 99.1667,108.167 98.5,108.5C 100.367,104.785 102.034,100.951 103.5,97C 103.333,96.1667 103.167,95.3333 103,94.5C 102.764,96.1193 101.931,97.1193 100.5,97.5C 100.5,96.5 100.5,95.5 100.5,94.5C 100.351,93.448 100.517,92.448 101,91.5C 102.113,92.305 103.279,92.9717 104.5,93.5 Z"/></g>
<g><path style="opacity:1" fill="#310e15" d="M 43.5,95.5 C 43.1072,98.5133 43.7739,101.18 45.5,103.5C 45.6713,106.797 45.0046,107.131 43.5,104.5C 42.1968,101.355 42.1968,98.3553 43.5,95.5 Z"/></g>
<g><path style="opacity:1" fill="#52352c" d="M 95.5,101.5 C 94.6935,102.728 93.6935,103.728 92.5,104.5C 88.5,106.167 84.5,107.833 80.5,109.5C 76.4163,108.812 72.4163,107.812 68.5,106.5C 68.0825,105.778 67.4158,105.278 66.5,105C 71.5,104.667 76.5,104.333 81.5,104C 85.1849,100.162 89.5182,97.3291 94.5,95.5C 95.521,96.0016 95.6877,96.6683 95,97.5C 93.8333,98.6667 92.6667,99.8333 91.5,101C 93.0187,100.669 94.352,100.836 95.5,101.5 Z"/></g>
<g><path style="opacity:1" fill="#9c9296" d="M 27.5,102.5 C 27.5,102.833 27.5,103.167 27.5,103.5C 25.9582,104.301 24.2915,104.634 22.5,104.5C 20.847,104.66 19.5137,105.326 18.5,106.5C 17.8333,106.5 17.1667,106.5 16.5,106.5C 19.5467,103.81 23.2133,102.476 27.5,102.5 Z"/></g>
<g><path style="opacity:1" fill="#54212f" d="M 40.5,92.5 C 40.8333,92.5 41.1667,92.5 41.5,92.5C 41.5,97.8333 41.5,103.167 41.5,108.5C 42.552,108.351 43.552,108.517 44.5,109C 47.9773,114.793 50.8106,120.96 53,127.5C 53.7805,128.944 53.6139,130.277 52.5,131.5C 49.4287,133.414 46.0954,134.247 42.5,134C 40.1435,128.419 38.4769,122.586 37.5,116.5C 37.2528,115.287 36.5862,114.62 35.5,114.5C 34.5,114.5 33.5,114.5 32.5,114.5C 32.5,112.167 32.5,109.833 32.5,107.5C 33.5463,105.118 33.5463,102.785 32.5,100.5C 35.0892,99.5806 37.0892,97.914 38.5,95.5C 38.7822,94.2223 39.4489,93.2223 40.5,92.5 Z"/></g>
<g><path style="opacity:1" fill="#7f646d" d="M 22.5,104.5 C 21.713,106.104 20.3797,106.771 18.5,106.5C 19.5137,105.326 20.847,104.66 22.5,104.5 Z"/></g>
<g><path style="opacity:1" fill="#6f6166" d="M 111.5,100.5 C 116.548,103.293 121.882,105.293 127.5,106.5C 127.5,106.833 127.5,107.167 127.5,107.5C 124.017,106.248 120.351,105.414 116.5,105C 114.382,103.951 112.716,102.451 111.5,100.5 Z"/></g>
<g><path style="opacity:1" fill="#6b6267" d="M 46.5,104.5 C 48.2624,105.262 49.2624,106.596 49.5,108.5C 47.7376,107.738 46.7376,106.404 46.5,104.5 Z"/></g>
<g><path style="opacity:1" fill="#886b5e" d="M 51.5,101.5 C 53.4714,102.823 55.4714,104.156 57.5,105.5C 58.4168,104.873 59.4168,104.539 60.5,104.5C 63.0037,105.639 65.6703,106.306 68.5,106.5C 69.5736,107.885 70.9069,109.051 72.5,110C 70.8333,110.333 69.1667,110.667 67.5,111C 68.056,111.383 68.3893,111.883 68.5,112.5C 65.1026,110.472 61.4359,108.972 57.5,108C 55.1013,106.02 53.1013,103.853 51.5,101.5 Z"/></g>
<g><path style="opacity:1" fill="#958d91" d="M 127.5,107.5 C 127.5,107.167 127.5,106.833 127.5,106.5C 129.898,106.259 131.898,106.926 133.5,108.5C 131.435,108.483 129.435,108.15 127.5,107.5 Z"/></g>
<g><path style="opacity:1" fill="#42333c" d="M 32.5,100.5 C 33.5463,102.785 33.5463,105.118 32.5,107.5C 30.2207,110.442 27.2207,112.109 23.5,112.5C 23.1667,112.5 22.8333,112.5 22.5,112.5C 24.2629,108.901 26.9295,106.068 30.5,104C 29.552,103.517 28.552,103.351 27.5,103.5C 27.5,103.167 27.5,102.833 27.5,102.5C 29.1667,101.833 30.8333,101.167 32.5,100.5 Z"/></g>
<g><path style="opacity:1" fill="#aba8ac" d="M 44.5,95.5 C 45.5,95.5 46.5,95.5 47.5,95.5C 49.2516,97.2459 50.5849,99.2459 51.5,101.5C 53.1013,103.853 55.1013,106.02 57.5,108C 61.4359,108.972 65.1026,110.472 68.5,112.5C 68.9234,113.265 69.2568,114.098 69.5,115C 67.1371,116.974 65.1371,119.14 63.5,121.5C 62.5,121.833 61.8333,122.5 61.5,123.5C 60.1805,124.942 58.5138,125.608 56.5,125.5C 57.1141,118.448 54.7808,112.781 49.5,108.5C 49.2624,106.596 48.2624,105.262 46.5,104.5C 46.5,104.167 46.5,103.833 46.5,103.5C 45.6295,100.888 44.9628,98.221 44.5,95.5 Z"/></g>
<g><path style="opacity:1" fill="#2d151b" d="M 107.5,96.5 C 108.404,97.209 108.737,98.209 108.5,99.5C 109.454,104.316 111.454,108.649 114.5,112.5C 114.217,113.289 113.717,113.956 113,114.5C 111.133,110.725 108.3,109.392 104.5,110.5C 104.67,109.178 104.337,108.011 103.5,107C 104.71,105.961 105.71,104.794 106.5,103.5C 106.993,101.194 107.326,98.861 107.5,96.5 Z"/></g>
<g><path style="opacity:1" fill="#7a5962" d="M 16.5,106.5 C 17.1667,106.5 17.8333,106.5 18.5,106.5C 15.855,108.31 12.855,109.31 9.5,109.5C 9.5,109.167 9.5,108.833 9.5,108.5C 11.921,108.122 14.2543,107.455 16.5,106.5 Z"/></g>
<g><path style="opacity:1" fill="#5c4147" d="M 127.5,107.5 C 129.435,108.15 131.435,108.483 133.5,108.5C 133.5,108.833 133.5,109.167 133.5,109.5C 130.99,109.946 128.99,109.28 127.5,107.5 Z"/></g>
<g><path style="opacity:1" fill="#37151d" d="M 117.5,108.5 C 120.617,109.782 122.95,111.949 124.5,115C 125.448,115.483 126.448,115.649 127.5,115.5C 126.799,112.784 125.465,110.45 123.5,108.5C 124.5,108.5 125.5,108.5 126.5,108.5C 126.5,109.5 126.5,110.5 126.5,111.5C 128.604,111.201 130.604,111.534 132.5,112.5C 131.624,113.251 130.624,113.751 129.5,114C 130.535,115.507 130.368,117.007 129,118.5C 127.259,119.758 125.426,120.758 123.5,121.5C 122.178,121.67 121.011,121.337 120,120.5C 117.02,123.151 114.353,126.151 112,129.5C 111.586,129.043 111.086,128.709 110.5,128.5C 109.963,133.555 109.629,138.555 109.5,143.5C 105.167,143.5 100.833,143.5 96.5,143.5C 96.5,142.833 96.5,142.167 96.5,141.5C 98.0396,137.002 99.3729,132.335 100.5,127.5C 101.323,124.023 101.823,120.356 102,116.5C 102.24,114.148 103.073,112.148 104.5,110.5C 108.3,109.392 111.133,110.725 113,114.5C 113.717,113.956 114.217,113.289 114.5,112.5C 116.176,113.183 116.843,114.517 116.5,116.5C 117.978,116.762 119.311,116.429 120.5,115.5C 118.673,113.513 117.673,111.179 117.5,108.5 Z"/></g>
<g><path style="opacity:1" fill="#8c7f83" d="M 133.5,109.5 C 133.5,109.167 133.5,108.833 133.5,108.5C 135.898,108.259 137.898,108.926 139.5,110.5C 137.435,110.483 135.435,110.15 133.5,109.5 Z"/></g>
<g><path style="opacity:1" fill="#8c747d" d="M 9.5,108.5 C 9.5,108.833 9.5,109.167 9.5,109.5C 6.16667,110.5 2.83333,111.5 -0.5,112.5C -0.5,111.833 -0.5,111.167 -0.5,110.5C 2.78926,109.626 6.12259,108.959 9.5,108.5 Z"/></g>
<g><path style="opacity:1" fill="#612737" d="M 27.5,103.5 C 28.552,103.351 29.552,103.517 30.5,104C 26.9295,106.068 24.2629,108.901 22.5,112.5C 22.1667,112.5 21.8333,112.5 21.5,112.5C 21.0831,111.876 20.4164,111.543 19.5,111.5C 12.8745,113.709 6.20787,115.709 -0.5,117.5C -0.5,115.833 -0.5,114.167 -0.5,112.5C 2.83333,111.5 6.16667,110.5 9.5,109.5C 12.855,109.31 15.855,108.31 18.5,106.5C 20.3797,106.771 21.713,106.104 22.5,104.5C 24.2915,104.634 25.9582,104.301 27.5,103.5 Z"/></g>
<g><path style="opacity:1" fill="#755344" d="M 68.5,106.5 C 72.4163,107.812 76.4163,108.812 80.5,109.5C 77.9906,110.921 75.6572,112.588 73.5,114.5C 71.6776,114.169 70.0109,113.502 68.5,112.5C 68.3893,111.883 68.056,111.383 67.5,111C 69.1667,110.667 70.8333,110.333 72.5,110C 70.9069,109.051 69.5736,107.885 68.5,106.5 Z"/></g>
<g><path style="opacity:1" fill="#3e2f34" d="M 104.5,94.5 C 105.167,97.5 105.833,100.5 106.5,103.5C 105.71,104.794 104.71,105.961 103.5,107C 104.337,108.011 104.67,109.178 104.5,110.5C 103.073,112.148 102.24,114.148 102,116.5C 101.823,120.356 101.323,124.023 100.5,127.5C 100.265,120.738 100.265,114.072 100.5,107.5C 103.777,103.844 105.111,99.5108 104.5,94.5 Z"/></g>
<g><path style="opacity:1" fill="#7b747a" d="M 98.5,108.5 C 97.621,110.228 96.9543,112.061 96.5,114C 99.0735,118.06 99.7401,122.227 98.5,126.5C 98.2343,122.921 96.901,122.587 94.5,125.5C 90.4583,118.724 91.7916,113.058 98.5,108.5 Z"/></g>
<g><path style="opacity:1" fill="#5e4045" d="M 141.5,111.5 C 142.167,111.5 142.833,111.5 143.5,111.5C 143.5,112.167 143.5,112.833 143.5,113.5C 142.167,113.5 141.5,112.833 141.5,111.5 Z"/></g>
<g><path style="opacity:1" fill="#4c1c2a" d="M 41.5,92.5 C 42.1667,92.5 42.8333,92.5 43.5,92.5C 43.5,93.5 43.5,94.5 43.5,95.5C 42.1968,98.3553 42.1968,101.355 43.5,104.5C 45.0046,107.131 45.6713,106.797 45.5,103.5C 45.8333,103.5 46.1667,103.5 46.5,103.5C 46.5,103.833 46.5,104.167 46.5,104.5C 46.7376,106.404 47.7376,107.738 49.5,108.5C 49.5,109.167 49.5,109.833 49.5,110.5C 49.3433,111.873 49.51,113.207 50,114.5C 51.0821,116.618 52.2488,118.618 53.5,120.5C 54.1667,122.5 54.8333,124.5 55.5,126.5C 57.7406,132.002 59.7406,137.669 61.5,143.5C 54.5,143.5 47.5,143.5 40.5,143.5C 36.4893,136.969 31.8227,130.802 26.5,125C 25.2068,124.51 23.8734,124.343 22.5,124.5C 22.3505,125.552 22.5172,126.552 23,127.5C 27.0974,132.716 30.9307,138.049 34.5,143.5C 23.5,143.5 12.5,143.5 1.5,143.5C 2.25154,140.253 2.75154,136.919 3,133.5C 6.19897,129.591 8.5323,130.258 10,135.5C 10.877,130.766 12.377,126.266 14.5,122C 18.4895,120.161 20.8228,116.995 21.5,112.5C 21.8333,112.5 22.1667,112.5 22.5,112.5C 22.8333,112.5 23.1667,112.5 23.5,112.5C 24.7772,114.148 25.7772,115.982 26.5,118C 29.4816,118.498 32.4816,118.665 35.5,118.5C 35.5,117.167 35.5,115.833 35.5,114.5C 36.5862,114.62 37.2528,115.287 37.5,116.5C 38.4769,122.586 40.1435,128.419 42.5,134C 46.0954,134.247 49.4287,133.414 52.5,131.5C 53.6139,130.277 53.7805,128.944 53,127.5C 50.8106,120.96 47.9773,114.793 44.5,109C 43.552,108.517 42.552,108.351 41.5,108.5C 41.5,103.167 41.5,97.8333 41.5,92.5 Z"/></g>
<g><path style="opacity:1" fill="#441a27" d="M 108.5,99.5 C 109.391,100.11 110.391,100.443 111.5,100.5C 112.716,102.451 114.382,103.951 116.5,105C 120.351,105.414 124.017,106.248 127.5,107.5C 128.99,109.28 130.99,109.946 133.5,109.5C 135.435,110.15 137.435,110.483 139.5,110.5C 140.167,110.833 140.833,111.167 141.5,111.5C 141.5,112.833 142.167,113.5 143.5,113.5C 143.5,115.833 143.5,118.167 143.5,120.5C 141.139,122.347 138.472,123.68 135.5,124.5C 134.002,122.841 132.502,121.175 131,119.5C 128.67,121.52 126.837,123.853 125.5,126.5C 123.783,125.332 123.116,123.665 123.5,121.5C 125.426,120.758 127.259,119.758 129,118.5C 130.368,117.007 130.535,115.507 129.5,114C 130.624,113.751 131.624,113.251 132.5,112.5C 130.604,111.534 128.604,111.201 126.5,111.5C 126.5,110.5 126.5,109.5 126.5,108.5C 125.5,108.5 124.5,108.5 123.5,108.5C 121.906,108.08 120.406,107.414 119,106.5C 117.97,106.836 117.47,107.503 117.5,108.5C 117.673,111.179 118.673,113.513 120.5,115.5C 119.311,116.429 117.978,116.762 116.5,116.5C 116.843,114.517 116.176,113.183 114.5,112.5C 111.454,108.649 109.454,104.316 108.5,99.5 Z"/></g>
<g><path style="opacity:1" fill="#3d2f37" d="M 123.5,108.5 C 125.465,110.45 126.799,112.784 127.5,115.5C 126.448,115.649 125.448,115.483 124.5,115C 122.95,111.949 120.617,109.782 117.5,108.5C 117.47,107.503 117.97,106.836 119,106.5C 120.406,107.414 121.906,108.08 123.5,108.5 Z"/></g>
<g><path style="opacity:1" fill="#563f47" d="M 49.5,110.5 C 51.7851,113.335 53.1184,116.668 53.5,120.5C 52.2488,118.618 51.0821,116.618 50,114.5C 49.51,113.207 49.3433,111.873 49.5,110.5 Z"/></g>
<g><path style="opacity:1" fill="#3e1822" d="M 32.5,107.5 C 32.5,109.833 32.5,112.167 32.5,114.5C 33.5,114.5 34.5,114.5 35.5,114.5C 35.5,115.833 35.5,117.167 35.5,118.5C 32.4816,118.665 29.4816,118.498 26.5,118C 25.7772,115.982 24.7772,114.148 23.5,112.5C 27.2207,112.109 30.2207,110.442 32.5,107.5 Z"/></g>
<g><path style="opacity:1" fill="#a19da2" d="M 80.5,118.5 C 79.1805,117.058 77.5138,116.392 75.5,116.5C 75.5,115.5 75.5,114.5 75.5,113.5C 78.5778,112.798 81.5778,111.798 84.5,110.5C 86.939,111.378 87.7723,113.045 87,115.5C 85.1295,117.219 82.9628,118.219 80.5,118.5 Z"/></g>
<g><path style="opacity:1" fill="#8c878b" d="M 98.5,108.5 C 91.7916,113.058 90.4583,118.724 94.5,125.5C 96.901,122.587 98.2343,122.921 98.5,126.5C 98.7373,127.791 98.404,128.791 97.5,129.5C 97.6567,128.127 97.49,126.793 97,125.5C 91.5121,128.008 88.8454,132.341 89,138.5C 87.6236,135.947 86.4569,133.28 85.5,130.5C 84.5481,132.045 84.2148,133.712 84.5,135.5C 83.8333,134.833 83.1667,134.167 82.5,133.5C 82.5,133.167 82.5,132.833 82.5,132.5C 82.0842,129.64 83.0842,127.474 85.5,126C 85.2926,124.05 84.2926,122.884 82.5,122.5C 82.2671,120.938 81.6005,119.605 80.5,118.5C 82.9628,118.219 85.1295,117.219 87,115.5C 87.7723,113.045 86.939,111.378 84.5,110.5C 81.5778,111.798 78.5778,112.798 75.5,113.5C 75.5,114.5 75.5,115.5 75.5,116.5C 74.5,116.167 73.8333,115.5 73.5,114.5C 75.6572,112.588 77.9906,110.921 80.5,109.5C 84.5,107.833 88.5,106.167 92.5,104.5C 96.3951,103.607 99.0618,101.274 100.5,97.5C 101.931,97.1193 102.764,96.1193 103,94.5C 103.167,95.3333 103.333,96.1667 103.5,97C 102.034,100.951 100.367,104.785 98.5,108.5 Z"/></g>
<g><path style="opacity:1" fill="#67595f" d="M 100.5,107.5 C 100.265,114.072 100.265,120.738 100.5,127.5C 99.3729,132.335 98.0396,137.002 96.5,141.5C 96.7244,137.821 97.0578,134.154 97.5,130.5C 97.5,130.167 97.5,129.833 97.5,129.5C 98.404,128.791 98.7373,127.791 98.5,126.5C 99.7401,122.227 99.0735,118.06 96.5,114C 96.9543,112.061 97.621,110.228 98.5,108.5C 99.1667,108.167 99.8333,107.833 100.5,107.5 Z"/></g>
<g><path style="opacity:1" fill="#53202e" d="M 21.5,112.5 C 20.8228,116.995 18.4895,120.161 14.5,122C 12.377,126.266 10.877,130.766 10,135.5C 8.5323,130.258 6.19897,129.591 3,133.5C 2.75154,136.919 2.25154,140.253 1.5,143.5C 0.833333,143.5 0.166667,143.5 -0.5,143.5C -0.5,134.833 -0.5,126.167 -0.5,117.5C 6.20787,115.709 12.8745,113.709 19.5,111.5C 20.4164,111.543 21.0831,111.876 21.5,112.5 Z"/></g>
<g><path style="opacity:1" fill="#5b575a" d="M 68.5,112.5 C 70.0109,113.502 71.6776,114.169 73.5,114.5C 73.8333,115.5 74.5,116.167 75.5,116.5C 77.5138,116.392 79.1805,117.058 80.5,118.5C 81.6005,119.605 82.2671,120.938 82.5,122.5C 81.8333,122.167 81.1667,121.833 80.5,121.5C 79.7101,120.206 78.7101,119.039 77.5,118C 74.5,117.333 71.5,117.333 68.5,118C 71.1506,118.153 73.4839,118.987 75.5,120.5C 74.5525,121.978 73.2191,122.978 71.5,123.5C 70.5525,124.978 69.2191,125.978 67.5,126.5C 65.901,126.768 64.5676,126.434 63.5,125.5C 65.9118,125.306 66.9118,123.973 66.5,121.5C 65.5,121.5 64.5,121.5 63.5,121.5C 65.1371,119.14 67.1371,116.974 69.5,115C 69.2568,114.098 68.9234,113.265 68.5,112.5 Z"/></g>
<g><path style="opacity:1" fill="#2a273a" d="M 80.5,121.5 C 78.8361,122.223 77.1694,121.89 75.5,120.5C 73.4839,118.987 71.1506,118.153 68.5,118C 71.5,117.333 74.5,117.333 77.5,118C 78.7101,119.039 79.7101,120.206 80.5,121.5 Z"/></g>
<g><path style="opacity:1" fill="#34141c" d="M 143.5,123.5 C 143.5,130.167 143.5,136.833 143.5,143.5C 137.833,143.5 132.167,143.5 126.5,143.5C 128.728,139.388 131.228,135.388 134,131.5C 134.74,130.251 134.573,129.251 133.5,128.5C 133.167,127.833 132.833,127.167 132.5,126.5C 134.426,127.242 136.259,128.242 138,129.5C 138.715,126.359 140.548,124.359 143.5,123.5 Z"/></g>
<g><path style="opacity:1" fill="#3f3c44" d="M 63.5,121.5 C 64.5,121.5 65.5,121.5 66.5,121.5C 66.9118,123.973 65.9118,125.306 63.5,125.5C 62.1667,125.5 61.5,124.833 61.5,123.5C 61.8333,122.5 62.5,121.833 63.5,121.5 Z"/></g>
<g><path style="opacity:1" fill="#3b2f36" d="M 40.5,143.5 C 38.5,143.5 36.5,143.5 34.5,143.5C 30.9307,138.049 27.0974,132.716 23,127.5C 22.5172,126.552 22.3505,125.552 22.5,124.5C 23.8734,124.343 25.2068,124.51 26.5,125C 31.8227,130.802 36.4893,136.969 40.5,143.5 Z"/></g>
<g><path style="opacity:1" fill="#7c757b" d="M 49.5,108.5 C 54.7808,112.781 57.1141,118.448 56.5,125.5C 58.5138,125.608 60.1805,124.942 61.5,123.5C 61.5,124.833 62.1667,125.5 63.5,125.5C 64.5676,126.434 65.901,126.768 67.5,126.5C 67.5,127.167 67.5,127.833 67.5,128.5C 67.1788,130.048 66.1788,130.715 64.5,130.5C 64.5,132.5 64.5,134.5 64.5,136.5C 63.5416,136.953 62.7083,137.619 62,138.5C 60.4053,134.602 59.2386,130.602 58.5,126.5C 57.5,126.5 56.5,126.5 55.5,126.5C 54.8333,124.5 54.1667,122.5 53.5,120.5C 53.1184,116.668 51.7851,113.335 49.5,110.5C 49.5,109.833 49.5,109.167 49.5,108.5 Z"/></g>
<g><path style="opacity:1" fill="#322d2e" d="M 75.5,120.5 C 77.1694,121.89 78.8361,122.223 80.5,121.5C 81.1667,121.833 81.8333,122.167 82.5,122.5C 82.8039,123.15 83.1373,123.817 83.5,124.5C 80.9285,125.728 79.5952,127.728 79.5,130.5C 78.3951,131.6 77.0618,132.267 75.5,132.5C 73.4727,133.861 71.806,135.527 70.5,137.5C 70.1788,135.952 69.1788,135.285 67.5,135.5C 68.1667,133.5 69.5,132.167 71.5,131.5C 72.1667,130.833 72.8333,130.167 73.5,129.5C 74.0768,131.652 75.2435,131.985 77,130.5C 77.8442,128.537 77.3442,127.204 75.5,126.5C 75.3059,124.088 73.9726,123.088 71.5,123.5C 73.2191,122.978 74.5525,121.978 75.5,120.5 Z"/></g>
<g><path style="opacity:1" fill="#2d2b38" d="M 71.5,123.5 C 73.9726,123.088 75.3059,124.088 75.5,126.5C 74.0937,126.973 73.427,127.973 73.5,129.5C 72.8333,130.167 72.1667,130.833 71.5,131.5C 71.5,130.5 71.5,129.5 71.5,128.5C 70.1667,128.5 68.8333,128.5 67.5,128.5C 67.5,127.833 67.5,127.167 67.5,126.5C 69.2191,125.978 70.5525,124.978 71.5,123.5 Z"/></g>
<g><path style="opacity:1" fill="#59534e" d="M 75.5,126.5 C 77.3442,127.204 77.8442,128.537 77,130.5C 75.2435,131.985 74.0768,131.652 73.5,129.5C 73.427,127.973 74.0937,126.973 75.5,126.5 Z"/></g>
<g><path style="opacity:1" fill="#716b71" d="M 82.5,122.5 C 84.2926,122.884 85.2926,124.05 85.5,126C 83.0842,127.474 82.0842,129.64 82.5,132.5C 82.1667,132.5 81.8333,132.5 81.5,132.5C 80.8333,131.833 80.1667,131.167 79.5,130.5C 79.5952,127.728 80.9285,125.728 83.5,124.5C 83.1373,123.817 82.8039,123.15 82.5,122.5 Z"/></g>
<g><path style="opacity:1" fill="#636071" d="M 67.5,128.5 C 68.8333,128.5 70.1667,128.5 71.5,128.5C 71.5,129.5 71.5,130.5 71.5,131.5C 69.5,132.167 68.1667,133.5 67.5,135.5C 66.391,135.557 65.391,135.89 64.5,136.5C 64.5,134.5 64.5,132.5 64.5,130.5C 66.1788,130.715 67.1788,130.048 67.5,128.5 Z"/></g>
<g><path style="opacity:1" fill="#3e1721" d="M 143.5,120.5 C 143.5,121.5 143.5,122.5 143.5,123.5C 140.548,124.359 138.715,126.359 138,129.5C 136.259,128.242 134.426,127.242 132.5,126.5C 131.116,125.199 129.616,125.199 128,126.5C 124.94,132.058 122.107,137.725 119.5,143.5C 116.167,143.5 112.833,143.5 109.5,143.5C 109.629,138.555 109.963,133.555 110.5,128.5C 111.086,128.709 111.586,129.043 112,129.5C 114.353,126.151 117.02,123.151 120,120.5C 121.011,121.337 122.178,121.67 123.5,121.5C 123.116,123.665 123.783,125.332 125.5,126.5C 126.837,123.853 128.67,121.52 131,119.5C 132.502,121.175 134.002,122.841 135.5,124.5C 138.472,123.68 141.139,122.347 143.5,120.5 Z"/></g>
<g><path style="opacity:1" fill="#1b1216" d="M 133.5,128.5 C 134.573,129.251 134.74,130.251 134,131.5C 131.228,135.388 128.728,139.388 126.5,143.5C 125.5,143.5 124.5,143.5 123.5,143.5C 126.871,138.474 130.204,133.474 133.5,128.5 Z"/></g>
<g><path style="opacity:1" fill="#555162" d="M 79.5,130.5 C 80.1667,131.167 80.8333,131.833 81.5,132.5C 79.5212,133.812 77.8545,135.479 76.5,137.5C 75.1667,137.5 74.5,136.833 74.5,135.5C 75.1098,134.609 75.4431,133.609 75.5,132.5C 77.0618,132.267 78.3951,131.6 79.5,130.5 Z"/></g>
<g><path style="opacity:1" fill="#4b4047" d="M 55.5,126.5 C 56.5,126.5 57.5,126.5 58.5,126.5C 59.2386,130.602 60.4053,134.602 62,138.5C 62.7083,137.619 63.5416,136.953 64.5,136.5C 65.391,135.89 66.391,135.557 67.5,135.5C 66.4664,137.553 64.9664,139.22 63,140.5C 62.5172,141.448 62.3505,142.448 62.5,143.5C 62.1667,143.5 61.8333,143.5 61.5,143.5C 59.7406,137.669 57.7406,132.002 55.5,126.5 Z"/></g>
<g><path style="opacity:1" fill="#7b7674" d="M 67.5,135.5 C 69.1788,135.285 70.1788,135.952 70.5,137.5C 69.1224,138.545 68.1224,139.878 67.5,141.5C 66.1667,141.5 65.5,142.167 65.5,143.5C 64.5,143.5 63.5,143.5 62.5,143.5C 62.3505,142.448 62.5172,141.448 63,140.5C 64.9664,139.22 66.4664,137.553 67.5,135.5 Z"/></g>
<g><path style="opacity:1" fill="#1a181d" d="M 75.5,132.5 C 75.4431,133.609 75.1098,134.609 74.5,135.5C 72.7865,138.213 70.4532,140.213 67.5,141.5C 68.1224,139.878 69.1224,138.545 70.5,137.5C 71.806,135.527 73.4727,133.861 75.5,132.5 Z"/></g>
<g><path style="opacity:1" fill="#3b3847" d="M 74.5,135.5 C 74.5,136.833 75.1667,137.5 76.5,137.5C 74.7484,139.246 73.4151,141.246 72.5,143.5C 70.1667,143.5 67.8333,143.5 65.5,143.5C 65.5,142.167 66.1667,141.5 67.5,141.5C 70.4532,140.213 72.7865,138.213 74.5,135.5 Z"/></g>
<g><path style="opacity:1" fill="#99949b" d="M 97.5,129.5 C 97.5,129.833 97.5,130.167 97.5,130.5C 96.5416,130.953 95.7083,131.619 95,132.5C 94.3246,136.358 93.158,140.025 91.5,143.5C 89.5,143.5 87.5,143.5 85.5,143.5C 85.7214,140.721 85.388,138.054 84.5,135.5C 84.2148,133.712 84.5481,132.045 85.5,130.5C 86.4569,133.28 87.6236,135.947 89,138.5C 88.8454,132.341 91.5121,128.008 97,125.5C 97.49,126.793 97.6567,128.127 97.5,129.5 Z"/></g>
<g><path style="opacity:1" fill="#877c83" d="M 97.5,130.5 C 97.0578,134.154 96.7244,137.821 96.5,141.5C 96.5,142.167 96.5,142.833 96.5,143.5C 94.8333,143.5 93.1667,143.5 91.5,143.5C 93.158,140.025 94.3246,136.358 95,132.5C 95.7083,131.619 96.5416,130.953 97.5,130.5 Z"/></g>
<g><path style="opacity:1" fill="#282127" d="M 132.5,126.5 C 132.833,127.167 133.167,127.833 133.5,128.5C 130.204,133.474 126.871,138.474 123.5,143.5C 122.167,143.5 120.833,143.5 119.5,143.5C 122.107,137.725 124.94,132.058 128,126.5C 129.616,125.199 131.116,125.199 132.5,126.5 Z"/></g>
<g><path style="opacity:1" fill="#171416" d="M 81.5,132.5 C 79.5813,136.421 77.248,140.088 74.5,143.5C 73.8333,143.5 73.1667,143.5 72.5,143.5C 73.4151,141.246 74.7484,139.246 76.5,137.5C 77.8545,135.479 79.5212,133.812 81.5,132.5 Z"/></g>
<g><path style="opacity:1" fill="#635b55" d="M 81.5,132.5 C 81.8333,132.5 82.1667,132.5 82.5,132.5C 82.5,132.833 82.5,133.167 82.5,133.5C 82.4326,134.959 82.7659,136.292 83.5,137.5C 81.4864,139.183 79.8198,141.183 78.5,143.5C 77.1667,143.5 75.8333,143.5 74.5,143.5C 77.248,140.088 79.5813,136.421 81.5,132.5 Z"/></g>
<g><path style="opacity:1" fill="#161520" d="M 83.5,137.5 C 83.9382,137.435 84.2716,137.601 84.5,138C 83.2423,139.741 82.2423,141.574 81.5,143.5C 80.5,143.5 79.5,143.5 78.5,143.5C 79.8198,141.183 81.4864,139.183 83.5,137.5 Z"/></g>
<g><path style="opacity:1" fill="#4e4c5f" d="M 82.5,133.5 C 83.1667,134.167 83.8333,134.833 84.5,135.5C 85.388,138.054 85.7214,140.721 85.5,143.5C 84.1667,143.5 82.8333,143.5 81.5,143.5C 82.2423,141.574 83.2423,139.741 84.5,138C 84.2716,137.601 83.9382,137.435 83.5,137.5C 82.7659,136.292 82.4326,134.959 82.5,133.5 Z"/></g>
</svg>
